<?xml version="1.0" encoding="UTF-8" standalone="no"?><!DOCTYPE svg PUBLIC "-//W3C//DTD SVG 1.1//EN" "http://www.w3.org/Graphics/SVG/1.1/DTD/svg11.dtd"><svg width="100%" height="100%" viewBox="0 0 216 216" version="1.1" xmlns="http://www.w3.org/2000/svg" xmlns:xlink="http://www.w3.org/1999/xlink" xml:space="preserve" xmlns:serif="http://www.serif.com/" style="fill-rule:evenodd;clip-rule:evenodd;stroke-linejoin:round;stroke-miterlimit:2;"><rect id="Artboard1" x="0" y="0" width="216" height="216" style="fill:none;"/><path d="M187.8,26.656l0,161.463l-159.6,0l159.6,-161.463Z" style="fill:#fff;"/><path d="M87.377,162.416l-25.703,0l0,25.703l25.703,0l-0,-25.703Zm33.474,0l-25.702,0l-0,25.703l25.702,0l0,-25.703Zm33.475,0l-25.703,0l0,25.703l25.703,0l-0,-25.703Zm33.474,0l-25.702,0l-0,25.703l25.702,0l0,-25.703Zm-133.898,0l-25.702,0l-0,25.703l25.702,0l0,-25.703Zm33.475,-33.382l-25.703,-0l0,25.703l25.703,-0l-0,-25.703Zm33.474,-0l-25.702,-0l-0,25.703l25.702,-0l0,-25.703Zm33.475,-0l-25.703,-0l0,25.703l25.703,-0l-0,-25.703Zm33.474,-0l-25.702,-0l-0,25.703l25.702,-0l0,-25.703Zm-133.898,-0l-25.702,-0l-0,25.703l25.702,-0l0,-25.703Zm33.475,-33.83l-25.703,0l0,25.703l25.703,-0l-0,-25.703Zm33.474,0l-25.702,0l-0,25.703l25.702,-0l0,-25.703Zm33.475,0l-25.703,0l0,25.703l25.703,-0l-0,-25.703Zm33.474,0l-25.702,0l-0,25.703l25.702,-0l0,-25.703Zm-133.898,0l-25.702,0l-0,25.703l25.702,-0l0,-25.703Zm33.475,-33.83l-25.703,0l0,25.703l25.703,-0l-0,-25.703Zm33.474,0l-25.702,0l-0,25.703l25.702,-0l0,-25.703Zm33.475,0l-25.703,0l0,25.703l25.703,-0l-0,-25.703Zm33.474,0l-25.702,0l-0,25.703l25.702,-0l0,-25.703Zm-133.898,0l-25.702,0l-0,25.703l25.702,-0l0,-25.703Zm0,-34.718l-25.702,0l-0,25.703l25.702,-0l0,-25.703Zm33.475,0l-25.703,0l0,25.703l25.703,-0l-0,-25.703Zm33.474,0l-25.702,0l-0,25.703l25.702,-0l0,-25.703Zm33.475,0l-25.703,0l0,25.703l25.703,-0l-0,-25.703Zm33.474,0l-25.702,0l-0,25.703l25.702,-0l0,-25.703Z" style="fill:#fff;"/></svg>